<?xml version="1.0" standalone="no"?>
<!DOCTYPE svg PUBLIC "-//W3C//DTD SVG 20010904//EN"
 "http://www.w3.org/TR/2001/REC-SVG-20010904/DTD/svg10.dtd">
<svg version="1.0" xmlns="http://www.w3.org/2000/svg"
 width="1280.000000pt" height="1280.000000pt" viewBox="0 0 1280.000000 1280.000000"
 preserveAspectRatio="xMidYMid meet">
<metadata>
Created by potrace 1.14, written by Peter Selinger 2001-2017
</metadata>
<g transform="translate(0.000000,1280.000000) scale(0.100000,-0.100000)"
fill="#000000" stroke="none">
<path d="M6058 12795 c-2 -2 -49 -7 -104 -9 -55 -3 -115 -8 -134 -10 -19 -3
-64 -8 -100 -11 -36 -3 -78 -8 -95 -10 -16 -3 -50 -7 -75 -10 -25 -2 -112 -16
-195 -30 -206 -35 -207 -35 -235 -41 -14 -3 -36 -8 -50 -10 -14 -3 -43 -10
-65 -16 -22 -5 -51 -12 -65 -15 -14 -2 -68 -15 -120 -29 -52 -13 -102 -26
-110 -28 -145 -35 -470 -144 -674 -226 -201 -80 -644 -286 -666 -310 -3 -3
-34 -20 -70 -39 -134 -70 -401 -237 -555 -345 -147 -104 -414 -308 -465 -357
-9 -8 -45 -39 -80 -69 -224 -188 -550 -524 -756 -779 -10 -13 -24 -28 -29 -35
-22 -23 -204 -264 -247 -326 -144 -208 -194 -287 -314 -490 -65 -111 -287
-540 -279 -540 2 0 -12 -31 -31 -70 -18 -38 -34 -72 -34 -76 0 -3 -7 -21 -15
-40 -25 -56 -41 -96 -65 -159 -12 -33 -26 -69 -31 -80 -32 -74 -131 -384 -176
-550 -57 -214 -125 -529 -139 -642 -1 -12 -5 -34 -8 -50 -8 -38 -13 -77 -21
-143 -3 -30 -8 -66 -10 -80 -8 -49 -17 -141 -32 -335 -16 -195 -8 -859 12
-1035 3 -19 7 -60 10 -90 4 -30 8 -68 10 -85 2 -16 7 -52 10 -80 6 -52 52
-332 61 -375 3 -14 9 -45 14 -70 7 -35 48 -214 64 -275 2 -5 6 -23 11 -40 39
-153 129 -449 154 -510 5 -11 28 -72 51 -135 193 -522 493 -1073 838 -1540
416 -562 924 -1056 1507 -1464 92 -64 388 -251 455 -287 25 -13 47 -26 50 -29
13 -13 327 -174 455 -232 161 -74 189 -86 338 -144 78 -30 151 -59 162 -64 49
-20 389 -129 419 -134 6 -1 17 -5 24 -9 6 -5 12 -6 12 -3 0 3 12 1 28 -5 15
-6 34 -12 42 -14 8 -2 60 -15 115 -29 55 -14 115 -28 134 -31 19 -3 37 -7 40
-9 6 -4 277 -56 316 -61 11 -1 36 -5 55 -9 19 -3 53 -8 75 -11 22 -3 69 -10
105 -15 36 -5 99 -12 140 -15 41 -3 84 -8 95 -10 131 -26 1032 -27 1172 -1 10
2 54 7 97 11 43 4 86 8 95 10 9 1 39 6 66 9 28 4 61 9 75 11 14 2 47 6 73 10
27 4 59 9 70 11 12 3 36 7 52 9 17 3 41 7 55 11 14 3 39 7 55 9 25 4 227 48
275 60 8 3 35 9 60 16 67 16 70 17 135 34 97 26 253 75 345 107 47 16 92 31
100 33 27 6 252 95 410 162 166 71 453 215 615 308 55 31 116 66 135 77 75 43
388 254 499 335 112 83 353 276 398 318 11 11 54 49 94 85 152 134 431 421
570 585 19 22 36 42 39 45 17 15 179 221 255 325 317 428 601 937 786 1408 22
56 44 111 49 122 30 69 181 534 195 604 2 9 17 70 33 136 27 106 41 170 57
255 3 14 7 36 10 50 7 32 11 54 20 110 4 25 9 54 11 65 3 11 7 36 9 55 3 19 7
49 10 65 7 43 13 93 20 148 3 26 7 66 10 90 24 198 29 331 29 692 0 312 -5
475 -19 585 -4 35 -14 127 -20 187 -2 17 -6 49 -10 71 -3 22 -8 62 -11 88 -2
27 -6 56 -9 64 -2 8 -7 31 -10 50 -16 101 -27 159 -35 200 -8 38 -71 315 -75
330 -1 3 -5 19 -9 35 -44 166 -130 449 -155 510 -5 11 -28 72 -51 135 -265
716 -712 1450 -1235 2026 -163 180 -466 475 -595 580 -19 16 -40 33 -46 39 -6
5 -28 24 -49 40 -21 17 -43 35 -49 40 -20 19 -191 150 -217 167 -14 9 -33 23
-40 30 -57 52 -397 271 -622 399 -123 71 -495 259 -511 259 -3 0 -34 13 -68
29 -238 110 -618 241 -943 326 -141 37 -138 36 -270 63 -49 11 -99 22 -110 25
-11 3 -38 8 -60 12 -22 3 -66 10 -98 16 -90 16 -114 19 -227 33 -30 4 -67 9
-81 12 -14 2 -52 6 -85 9 -32 3 -79 8 -104 11 -25 3 -72 7 -105 10 -78 6 -812
14 -817 9z"/>
</g>
</svg>
